<svg width="48px" height="48px" viewBox="0 0 48 48" version="1.1" xmlns="http://www.w3.org/2000/svg" xmlns:xlink="http://www.w3.org/1999/xlink"><title>49597F56-FC8E-4204-B77F-01ADAD7AC94B@1.00x</title><desc>Created with sketchtool.</desc><defs><polygon id="path-1__k7K2zG5i" points="0 0.0006 47.9874 0.0006 47.9874 48 0 48"></polygon></defs><g id="Main-Screens__k7K2zG5i" stroke="none" stroke-width="1" fill="none" fill-rule="evenodd"><g id="Mobile-with-EC-Grid__k7K2zG5i" transform="translate(-136.000000, -3128.000000)"><g id="Prize_Icon_Mobile__k7K2zG5i" transform="translate(136.000000, 3128.000000)"><g id="Group-3__k7K2zG5i"><mask id="mask-2__k7K2zG5i" fill="white"><use xlink:href="#path-1__k7K2zG5i"></use></mask><g id="Clip-2__k7K2zG5i"></g><path d="M45.1674,12.7266 C45.1674,14.5596 43.9914,16.1226 42.3564,16.7016 L42.3564,8.4756 L45.1674,8.4666 L45.1674,12.7266 Z M39.5334,18.3426 C39.5334,24.9816 28.8114,31.4496 23.9934,33.7356 C19.1784,31.4526 8.4564,24.9936 8.4564,18.3426 L8.4564,7.0656 L8.4564,2.8236 L39.5334,2.8236 L39.5334,18.3426 Z M31.0524,43.7676 L31.0524,45.1746 L16.9374,45.1746 L16.9374,43.7676 C16.9374,39.8736 20.1024,36.7086 23.9934,36.7086 C27.8874,36.7086 31.0524,39.8736 31.0524,43.7676 L31.0524,43.7676 Z M5.6274,16.7016 C3.9924,16.1226 2.8224,14.5566 2.8224,12.7266 L2.8224,8.4666 L5.6304,8.4756 L5.6274,16.7016 Z M46.5774,5.6376 L46.5714,5.6376 L42.3564,5.6496 L42.3564,1.4136 C42.3564,0.6306 41.7264,0.0006 40.9464,0.0006 L7.0434,0.0006 C6.2634,0.0006 5.6304,0.6306 5.6304,1.4136 L5.6304,5.6496 L1.4184,5.6376 L1.4124,5.6376 C1.0374,5.6376 0.6774,5.7876 0.4134,6.0456 C0.1494,6.3126 -0.0006,6.6726 -0.0006,7.0476 L-0.0006,12.7266 C-0.0006,16.1706 2.4894,19.0386 5.7624,19.6416 C6.7344,26.4786 15.0504,32.0676 19.9254,34.7886 C16.5084,36.3426 14.1144,39.7746 14.1144,43.7676 L14.1144,46.5876 C14.1144,47.3706 14.7444,48.0006 15.5244,48.0006 L32.4654,48.0006 C33.2424,48.0006 33.8724,47.3706 33.8724,46.5876 L33.8724,43.7676 C33.8724,39.7746 31.4814,36.3426 28.0644,34.7886 C32.9394,32.0676 41.2524,26.4786 42.2274,19.6416 C45.4974,19.0386 47.9874,16.1706 47.9874,12.7266 L47.9874,7.0476 C47.9874,6.6726 47.8404,6.3126 47.5764,6.0456 C47.3124,5.7876 46.9524,5.6376 46.5774,5.6376 L46.5774,5.6376 Z" id="Fill-1__k7K2zG5i" fill="#222222" mask="url(#mask-2__k7K2zG5i)"></path></g><path d="M23.9946,13.0341 C26.3286,13.0341 28.2276,14.9331 28.2276,17.2671 C28.2276,19.6011 26.3286,21.5001 23.9946,21.5001 C21.6606,21.5001 19.7616,19.6011 19.7616,17.2671 C19.7616,14.9331 21.6606,13.0341 23.9946,13.0341 M23.9946,24.3261 C27.8886,24.3261 31.0536,21.1611 31.0536,17.2671 C31.0536,13.3761 27.8886,10.2111 23.9946,10.2111 C20.1006,10.2111 16.9356,13.3761 16.9356,17.2671 C16.9356,21.1611 20.1006,24.3261 23.9946,24.3261" id="Fill-4__k7K2zG5i" fill="#222222"></path></g></g></g></svg>