<svg width="128px" height="128px" viewBox="0 0 128 128" version="1.1" xmlns="http://www.w3.org/2000/svg" xmlns:xlink="http://www.w3.org/1999/xlink"><title>A62D0C67-2A3D-45AB-BDE5-8DDA73FFD884@1.00x</title><desc>Created with sketchtool.</desc><g id="Main-Screens__kKmVUCBP" stroke="none" stroke-width="1" fill="none" fill-rule="evenodd"><g id="Desktop-HD-with-EC-Grid__kKmVUCBP" transform="translate(-656.000000, -4041.000000)"><g id="Licensing_Icon_Desktop__kKmVUCBP" transform="translate(656.000000, 4041.000000)"><path d="M128,64 C128,99.3463294 99.3463294,128 64,128 C28.6536706,128 0,99.3463294 0,64 C0,28.6536706 28.6536706,0 64,0 C99.3463294,0 128,28.6536706 128,64" id="Fill-1__kKmVUCBP" fill="#FEDF46"></path><path d="M86.4000611,90.0924792 L41.6000611,90.0924792 L35.0515933,59.8166606 L45.6099131,71.8850138 C46.1356601,72.4874387 46.9045766,72.7700162 47.7199274,72.6728706 C48.5099227,72.5662549 49.1933021,72.0658635 49.5360611,71.3479637 L64.0000611,41.0440401 L78.4637556,71.3479637 C78.80682,72.0658635 79.4923379,72.5662549 80.2798893,72.6728706 C81.1092926,72.7840687 81.8641566,72.4825508 82.3877652,71.8850138 L92.9506673,59.8166606 L86.4000611,90.0924792 Z M90.0925098,99.5806702 L37.9076124,99.5806702 L37.9076124,94.836422 L39.6864764,94.836422 L88.3133403,94.836422 L90.0925098,94.836422 L90.0925098,99.5806702 Z M30.7915456,44.231515 C32.1002616,44.231515 33.1633642,45.2970616 33.1633642,46.6036391 C33.1633642,47.9099112 32.1002616,48.9754578 30.7915456,48.9754578 C29.4828296,48.9754578 28.4194215,47.9099112 28.4194215,46.6036391 C28.4194215,45.2970616 29.4828296,44.231515 30.7915456,44.231515 L30.7915456,44.231515 Z M64.0000611,28.4193909 C65.3087771,28.4193909 66.3718797,29.4849375 66.3718797,30.791515 C66.3718797,32.0977871 65.3087771,33.1633337 64.0000611,33.1633337 C62.6913451,33.1633337 61.627937,32.0977871 61.627937,30.791515 C61.627937,29.4849375 62.6913451,28.4193909 64.0000611,28.4193909 L64.0000611,28.4193909 Z M97.2085766,44.231515 C98.5148487,44.231515 99.5807007,45.2970616 99.5807007,46.6036391 C99.5807007,47.9099112 98.5148487,48.9754578 97.2085766,48.9754578 C95.901999,48.9754578 94.8364525,47.9099112 94.8364525,46.6036391 C94.8364525,45.2970616 95.901999,44.231515 97.2085766,44.231515 L97.2085766,44.231515 Z M104.324643,46.6036391 C104.324643,42.6796296 101.132586,39.4875723 97.2085766,39.4875723 C93.2842616,39.4875723 90.0925098,42.6796296 90.0925098,46.6036391 C90.0925098,49.0060067 91.296443,51.1248802 93.1254072,52.4140449 L81.1926912,66.0477251 L67.344252,37.0338826 C69.5773785,35.8320878 71.1161279,33.5002883 71.1161279,30.791515 C71.1161279,26.8675055 67.9240706,23.6754482 64.0000611,23.6754482 C60.0760516,23.6754482 56.8839943,26.8675055 56.8839943,30.791515 C56.8839943,33.5002883 58.4224382,35.8320878 60.6555647,37.0338826 L46.807431,66.0477251 L34.875937,52.4128229 C36.7036792,51.1233527 37.9076124,49.0053957 37.9076124,46.6036391 C37.9076124,42.6796296 34.7155551,39.4875723 30.7915456,39.4875723 C26.867536,39.4875723 23.6754788,42.6796296 23.6754788,46.6036391 C23.6754788,49.8351045 25.8536172,52.53899 28.8092258,53.4035246 L36.7464477,90.0924792 L35.5357938,90.0924792 C34.2246339,90.0924792 33.1633642,91.1534434 33.1633642,92.4646033 L33.1633642,101.952489 C33.1633642,103.263649 34.2246339,104.324613 35.5357938,104.324613 L92.4646339,104.324613 C93.7757938,104.324613 94.8364525,103.263649 94.8364525,101.952489 L94.8364525,92.4646033 C94.8364525,91.1534434 93.7757938,90.0924792 92.4646339,90.0924792 L91.2512305,90.0924792 L99.188147,53.4044411 C102.144978,52.5405174 104.324643,49.8363265 104.324643,46.6036391 L104.324643,46.6036391 Z" id="Fill-3__kKmVUCBP" fill="#222222"></path><path d="M64,75.8600706 C62.691284,75.8600706 61.6278759,74.7948296 61.6278759,73.4879465 C61.6278759,72.1816745 62.691284,71.1161279 64,71.1161279 C65.308716,71.1161279 66.3721241,72.1816745 66.3721241,73.4879465 C66.3721241,74.7948296 65.308716,75.8600706 64,75.8600706 M64,66.3718797 C60.0759905,66.3718797 56.8839332,69.5642425 56.8839332,73.4879465 C56.8839332,77.4122616 60.0759905,80.6040134 64,80.6040134 C67.9240095,80.6040134 71.1160668,77.4122616 71.1160668,73.4879465 C71.1160668,69.5642425 67.9240095,66.3718797 64,66.3718797" id="Fill-5__kKmVUCBP" fill="#222222"></path></g></g></g></svg>