<svg width="69px" height="64px" viewBox="0 0 69 64" version="1.1" xmlns="http://www.w3.org/2000/svg" xmlns:xlink="http://www.w3.org/1999/xlink"><title>Group 8</title><desc>Created with Sketch.</desc><defs><polygon id="path-1__bzjHWEfJ" points="0.000198729572 0.000120943056 68.6868462 0.000120943056 68.6868462 63.9998933 0.000198729572 63.9998933"></polygon></defs><g id="Page-1__bzjHWEfJ" stroke="none" stroke-width="1" fill="none" fill-rule="evenodd"><g id="Licensing-Large-/-1.0.0---Colour__bzjHWEfJ" transform="translate(-64.000000, -608.000000)"><g id="Group-8__bzjHWEfJ" transform="translate(64.000000, 608.000000)"><path class="inline_svg_icon__fill" d="M27.9994569,18.8093867 C25.9061031,19.6616533 24.0314262,20.9117867 22.4200108,22.52992 C20.8128415,24.1469867 19.5676569,26.0328533 18.7184262,28.13632 C18.3309646,29.09952 18.7916723,30.1949867 19.7502415,30.5853867 C19.9805954,30.68032 20.21838,30.7240533 20.4551031,30.7240533 C21.1939338,30.7240533 21.8945492,30.2792533 22.1907185,29.54752 C22.8488723,27.91552 23.8191185,26.45312 25.0706723,25.1912533 C26.3232877,23.93472 27.7829031,22.9597867 29.4081185,22.2941867 C30.3666877,21.9048533 30.8273954,20.8093867 30.4399338,19.8461867 C30.0482262,18.87872 28.9484723,18.4157867 27.9994569,18.8093867" id="Fill-1__bzjHWEfJ" fill="#222222"></path><g id="Group-5__bzjHWEfJ"><mask id="mask-2__bzjHWEfJ" fill="white"><use xlink:href="#path-1__bzjHWEfJ"></use></mask><g id="Clip-4__bzjHWEfJ"></g><path class="inline_svg_icon__fill" d="M64.9397215,40.7134933 L57.1618292,40.7134933 C56.4070754,40.7134933 55.7266292,41.1700267 55.4347062,41.8644267 C54.34026,44.48096 52.7713062,46.8244267 50.7713677,48.8340267 C46.6748908,52.9492267 41.2281369,55.21376 35.4321369,55.21376 C29.6361369,55.21376 24.1883215,52.9492267 20.0907831,48.8340267 C15.9932446,44.72096 13.7374754,39.2500267 13.7374754,33.43456 C13.7374754,27.61376 15.9932446,22.1438933 20.0907831,18.02976 C24.1883215,13.9156267 29.6361369,11.6510933 35.4321369,11.6510933 C36.9543831,11.6510933 38.5201523,11.8388267 40.2196754,12.22496 C40.7844138,12.3646933 41.3650754,12.2206933 41.8066754,11.85696 L49.2692908,5.81642667 L49.2692908,15.90816 C49.2692908,16.4414933 49.4922138,16.9492267 49.8860446,17.3054933 C50.0590754,17.46336 50.2448446,17.6062933 50.4316754,17.7502933 C50.5495062,17.8420267 50.6705215,17.93056 50.7713677,18.02976 C53.2351985,20.5044267 55.0960754,23.7278933 56.1512446,27.3492267 C56.3858446,28.15136 57.1172446,28.7028267 57.9505523,28.7028267 L64.9397215,28.7028267 L64.9397215,40.7134933 Z M47.4561831,60.2356267 L41.2122138,60.2356267 L41.2122138,58.2910933 C43.3926138,57.7854933 45.4933985,57.01536 47.4561831,55.9550933 L47.4561831,60.2356267 Z M27.4748446,60.2356267 L21.2308754,60.2356267 L21.2308754,54.6302933 C23.1671215,55.94336 25.2679062,56.9588267 27.4748446,57.6862933 L27.4748446,60.2356267 Z M66.8133369,24.9374933 L59.3146292,24.9374933 C58.0344138,21.2574933 56.0121831,17.9710933 53.4167215,15.36416 C53.2882754,15.2350933 53.1545215,15.11776 53.0165215,15.0036267 L53.0165215,1.88256 C53.0165215,1.15829333 52.6025215,0.49696 51.9517985,0.184426667 C51.3000138,-0.131306667 50.5282754,-0.0331733333 49.9677831,0.415893333 L40.1496138,8.36469333 C38.5105985,8.04469333 36.9596908,7.88682667 35.4321369,7.88682667 C28.6361677,7.88682667 22.2478292,10.5438933 17.4411831,15.3684267 C13.1483215,19.6820267 10.5931985,25.26816 10.0953369,31.2756267 C9.33527538,32.5470933 7.63893692,34.5214933 6.37039846,34.57696 C5.51479846,34.5374933 4.50102923,33.31936 3.58810615,31.23936 C3.17092154,30.2910933 2.06373692,29.85696 1.11790615,30.27936 C0.171013846,30.69856 -0.256786154,31.80896 0.159336923,32.7614933 C1.73466,36.3454933 3.76326,38.2238933 6.19524462,38.3380267 C6.26955231,38.3412267 6.34492154,38.3412267 6.42135231,38.3412267 C7.86929077,38.3412267 9.16224462,37.68096 10.2386446,36.8222933 C10.96686,42.3582933 13.4434292,47.47936 17.4411831,51.4964267 C17.4560446,51.5102933 17.4709062,51.52096 17.4836446,51.5348267 L17.4836446,62.1172267 C17.4836446,63.1582933 18.3211985,63.9998933 19.35726,63.9998933 L29.3473985,63.9998933 C30.3823985,63.9998933 31.2210138,63.1582933 31.2210138,62.1172267 L31.2210138,58.6036267 C32.6020754,58.8340267 34.0043677,58.9780267 35.4321369,58.9780267 C36.1157677,58.9780267 36.7919677,58.93216 37.4660446,58.87776 L37.4660446,62.1172267 C37.4660446,63.1582933 38.30466,63.9998933 39.33966,63.9998933 L49.3297985,63.9998933 C50.36586,63.9998933 51.2034138,63.1582933 51.2034138,62.1172267 L51.2034138,53.4590933 C51.9709062,52.8468267 52.7171677,52.20256 53.4199062,51.4964267 C55.4676138,49.4420267 57.1289215,47.0846933 58.3719831,44.47776 L66.8133369,44.47776 C67.8483369,44.47776 68.6869523,43.63616 68.6869523,42.59616 L68.6869523,26.82016 C68.6869523,25.78016 67.8483369,24.9374933 66.8133369,24.9374933 Z" id="Fill-3__bzjHWEfJ" fill="#222222" mask="url(#mask-2__bzjHWEfJ)"></path></g><path class="inline_svg_icon__fill" d="M44.3335615,32.62496 C42.6117462,32.62496 41.2126385,31.21696 41.2126385,29.48896 C41.2126385,27.76096 42.6117462,26.35296 44.3335615,26.35296 C46.0553769,26.35296 47.4566077,27.76096 47.4566077,29.48896 C47.4566077,31.21696 46.0553769,32.62496 44.3335615,32.62496 M44.3335615,22.5886933 C40.5470538,22.5886933 37.4664692,25.68416 37.4664692,29.48896 C37.4664692,33.2948267 40.5470538,36.3892267 44.3335615,36.3892267 C48.1221923,36.3892267 51.2027769,33.2948267 51.2027769,29.48896 C51.2027769,25.68416 48.1221923,22.5886933 44.3335615,22.5886933" id="Fill-6__bzjHWEfJ" fill="#222222"></path></g></g></g></svg>