<svg xmlns="http://www.w3.org/2000/svg" viewBox="0 0 24 24"><defs><style>
      .a {
        fill: #e44059;
      }

      .b {
        fill: #fff;
      }
    </style></defs><title>Quest_Badge</title><circle class="a" cx="12" cy="12" r="12"></circle><path class="b" d="M6.607,17.39a.464.464,0,0,0-.657,0L4.344,19A.465.465,0,0,0,5,19.653l1.606-1.606A.464.464,0,0,0,6.607,17.39Z"></path><path class="b" d="M7.115,16.882a.465.465,0,0,0,.657,0l1.344-1.344a.465.465,0,0,0-.657-.657L7.115,16.225A.465.465,0,0,0,7.115,16.882Z"></path><path class="b" d="M9.024,16.94a.464.464,0,0,0-.657,0L6.5,18.811a.464.464,0,1,0,.656.657L9.024,17.6A.465.465,0,0,0,9.024,16.94Z"></path><path class="b" d="M6.5,14.881,4.53,16.847a.465.465,0,0,0,.657.657l1.966-1.966a.464.464,0,0,0-.656-.657Z"></path><path class="b" d="M19.379,8.836a7.507,7.507,0,0,0-.347-.71c.1-.3.2-.6.273-.909l.656-2.625a.464.464,0,0,0-.563-.563l-2.624.657c-.316.078-.62.174-.92.277-.22-.119-.444-.231-.677-.33a7.945,7.945,0,0,0-6.148,0A7.9,7.9,0,0,0,4.71,14.683l-.574.573a.465.465,0,0,0,.657.657l.742-.742a.478.478,0,0,0,.087-.087l1.531-1.531A.464.464,0,0,0,6.5,12.9L5.441,13.951a6.978,6.978,0,0,1,3.95-8.462,7.015,7.015,0,0,1,5.3-.046,9.315,9.315,0,0,0-2.531,1.794L8.765,10.628,7.358,12.034a.465.465,0,0,0,0,.657L11.3,16.632a.465.465,0,0,0,.657,0l1.407-1.407,3.391-3.391a9.362,9.362,0,0,0,1.8-2.547,6.972,6.972,0,0,1-3.741,9.042,7.039,7.039,0,0,1-4.787.231L11.084,17.5a.465.465,0,1,0-.657-.657L8.082,19.192a.465.465,0,0,0,.657.657L9.3,19.29A7.9,7.9,0,0,0,19.379,8.836ZM18.7,5.788l-.5-.5.669-.168ZM16.242,6.866l-.655.654L14.6,6.536A8.928,8.928,0,0,1,15.48,6.1Zm-4.614,8.781L8.344,12.362l.749-.749,1.832,1.831.8.8a.5.5,0,0,0,.032.048.4.4,0,0,0,.048.032l.577.577Zm4.469-4.47L13.035,14.24l-.289-.288L15.4,11.3a.465.465,0,0,0-.657-.657L12.089,13.3l-.7-.7L9.75,10.956l3.062-3.063a8.472,8.472,0,0,1,.992-.842l1.455,1.455a.465.465,0,0,0,.657,0l1.312-1.312a.465.465,0,0,0,0-.657l-.791-.791c.184-.057.371-.111.562-.159l.153-.038,1.289,1.29-.038.153A8.838,8.838,0,0,1,16.1,11.177Z"></path></svg>