<svg width="64" height="64" viewBox="0 0 24 24" fill="none" xmlns="http://www.w3.org/2000/svg"><path d="M23.3 22.6H21.2V4.9C21.2 4.5 20.9 4.2 20.5 4.2C20.1 4.2 19.8 4.5 19.8 4.9V22.5H18.4V9.2C18.4 8.8 18.1 8.5 17.7 8.5C17.3 8.5 17 8.8 17 9.2V22.6H15.6V13.4C15.6 13 15.3 12.7 14.9 12.7C14.5 12.7 14.2 13 14.2 13.4V22.6H12.8V12C12.8 11.6 12.5 11.3 12.1 11.3C11.7 11.3 11.4 11.6 11.4 12V22.6H9.9V16.2C9.9 15.8 9.6 15.5 9.2 15.5C8.8 15.5 8.5 15.8 8.5 16.2V22.6H7.1V17.7C7.1 17.3 6.8 17 6.4 17C6 17 5.7 17.3 5.7 17.7V22.6H4.2V14.8C4.2 14.4 3.9 14.1 3.5 14.1C3.1 14.1 2.8 14.4 2.8 14.8V22.6H1.4V0.7C1.4 0.3 1.1 0 0.7 0C0.3 0 0 0.3 0 0.7V23.3C0 23.7 0.3 24 0.7 24H23.3C23.7 24 24 23.7 24 23.3C24 22.9 23.7 22.6 23.3 22.6Z" fill="#222222"></path></svg>